<?xml version="1.0" encoding="iso-8859-1"?>
<!-- Uploaded to: SVG Repo, www.svgrepo.com, Generator: SVG Repo Mixer Tools -->
<svg fill="#000000" height="600px" width="600px" version="1.1" id="Layer_1" xmlns="http://www.w3.org/2000/svg" xmlns:xlink="http://www.w3.org/1999/xlink" 
	 viewBox="0 0 503.607 503.607" xml:space="preserve">
<g transform="translate(1 1)">
	<g>
		<g>
			<path d="M243.249,315.433l-15.108,44.485h-44.485c-3.357,0-6.715,2.518-7.554,5.875c-1.679,3.357,0,6.715,2.518,9.233
				l37.77,30.216l-15.108,44.485c-1.679,3.357,0,6.715,2.518,9.233c2.518,2.518,5.875,2.518,9.233,0.839l37.771-22.662
				l37.771,22.662c0.839,0.839,2.518,0.839,4.197,0.839c1.679,0,3.357,0,5.036-1.679c2.518-2.518,3.357-5.875,2.518-9.233
				l-15.108-44.485l37.771-30.216c2.518-2.518,3.357-5.875,2.518-9.233c-0.839-3.357-4.197-5.875-7.554-5.875h-44.485
				l-15.108-44.485c-0.839-3.357-4.197-5.875-7.554-5.875S244.088,312.075,243.249,315.433z M260.036,370.829
				c0.839,3.357,4.197,5.875,7.554,5.875h26.859l-23.502,18.466c-2.518,2.518-3.357,5.875-2.518,9.233l9.233,28.538L255,419.511
				c-0.839-0.839-2.518-0.839-4.197-0.839s-3.357,0.839-3.357,0.839l-22.662,13.43l9.233-28.538c1.679-3.357,0-6.715-2.518-9.233
				l-23.502-18.466h26.02c3.357,0,6.715-1.679,7.554-5.036l9.233-26.859L260.036,370.829z"/>
			<path d="M387.616,156.797l-49.521-141.01C334.738,5.715,325.505-1,314.593-1H267.59h-33.574h-50.361
				c-8.393,0-15.948,4.197-20.144,10.911c-2.741,3.655-4.23,7.809-4.62,12.188L113.99,157.636
				c-4.197,12.59,2.518,26.859,15.108,31.895l32.715,12.065c0.279,0.196,0.565,0.378,0.859,0.525l27.113,9.791l3.344,1.233
				c0.624,0.296,1.13,0.473,1.561,0.576l47.72,17.599v3.766c-14.439,3.752-25.18,16.934-25.18,32.504
				c0,7.52,2.507,14.483,6.725,20.096c-47.373,11.91-82.266,54.645-82.266,105.806c0,60.433,48.682,109.115,109.115,109.115
				s109.115-48.682,109.115-109.115c0-51.161-34.892-93.896-82.266-105.806c4.218-5.613,6.725-12.575,6.725-20.096
				c0-15.57-10.742-28.752-25.18-32.504v-2.999l113.311-43.396C385.098,183.656,391.813,169.387,387.616,156.797z M261.715,15.787
				l62.112,173.744l-14.269,5.036l-63.79-178.78H261.715z M183.656,15.787h44.628l66.904,184.971l-39.349,14.793L176.102,27.538
				c-0.457-0.685-0.722-1.433-0.839-2.191c0-0.445,0-0.862,0-1.166c0-0.185-0.011-0.369-0.021-0.553
				c0.18-1.433,0.823-2.768,1.699-3.644C178.62,17.466,181.138,15.787,183.656,15.787z M129.938,162.672L166.869,50.2l23.043,53.955
				l-28.634,79.293l-26.305-9.864C130.777,171.905,128.259,166.869,129.938,162.672z M186.454,192.889l-9.446-3.542l22.595-61.927
				l8.393,20.144l-16.787,47.003L186.454,192.889z M206.245,200.31l11.264-31.538l18.186,42.582L206.245,200.31z M343.131,393.492
				c0,51.2-41.128,92.328-92.328,92.328s-92.328-41.967-92.328-92.328s41.128-92.328,92.328-92.328S343.131,342.292,343.131,393.492
				z M267.59,267.59c0,9.233-7.554,16.787-16.787,16.787c-9.233,0-16.787-7.554-16.787-16.787c0-6.177,3.39-11.589,8.393-14.504
				v6.111c0,5.036,3.357,8.393,8.393,8.393s8.393-3.357,8.393-8.393v-6.111C264.2,256.001,267.59,261.413,267.59,267.59z
				 M367.472,173.584l-27.77,10.44L279.076,15.787h35.517c3.357,0,6.715,2.518,7.554,5.875l50.361,141.01
				C374.187,166.869,371.669,171.905,367.472,173.584z"/>
		</g>
	</g>
</g>
</svg>